# xmcd
#
# Track frame offsets: 
#        150
#        19917
#        32242
#        48313
#        59853
#        74523
#        85994
#        100051
#        112228
#        124637
#        137431
#        151305
#        164068
#        178767
#        196027
#        211083
#        228853
#        253509
#        273097
#        302298
#
# Disc length: 4233 seconds
#
# Revision: 2
# Processed by: cddbd v1.5.2PL0 Copyright (c) Steve Scherf et al.
# Submitted via: ExactAudioCopy v0.95b3
#
DISCID=14108714
DTITLE=Duke Ellington - The Reprise Studio Recordings - Disc 02
DYEAR=1999
DGENRE=Jazz
TTITLE0=Afro Bossa
TTITLE1=Purple Gazelle
TTITLE2=Absinthe
TTITLE3=Moonbow
TTITLE4=Sempre Amore
TTITLE5=Caline (Silk Lace)
TTITLE6=Tigress
TTITLE7=Angu
TTITLE8=Volupte
TTITLE9=Bonga
TTITLE10=Pyramid
TTITLE11=Eighth Veil
TTITLE12=Resume 1
TTITLE13=Resume 2
TTITLE14=Trickys Licks
TTITLE15=Blues in C
TTITLE16=Limbo Jazz
TTITLE17=Pretty Little One
TTITLE18=String Along with Strings
TTITLE19=The Feeling of Jazz
EXTD=YEAR: 1976
EXTT0=
EXTT1=
EXTT2=
EXTT3=
EXTT4=
EXTT5=
EXTT6=
EXTT7=
EXTT8=
EXTT9=
EXTT10=
EXTT11=
EXTT12=
EXTT13=
EXTT14=
EXTT15=
EXTT16=
EXTT17=
EXTT18=
EXTT19=
PLAYORDER=
